<?xml version="1.0" encoding="UTF-8" standalone="no"?>
<!DOCTYPE svg PUBLIC "-//W3C//DTD SVG 1.1//EN"
 "http://www.w3.org/Graphics/SVG/1.1/DTD/svg11.dtd">
<!-- Generated by graphviz version 2.44.1 (0)
 -->
<!-- Pages: 1 -->
<svg width="402pt" height="169pt"
 viewBox="0.00 0.00 402.00 169.00" xmlns="http://www.w3.org/2000/svg" xmlns:xlink="http://www.w3.org/1999/xlink">
<g id="graph0" class="graph" transform="scale(1 1) rotate(0) translate(36 133)">
<polygon fill="white" stroke="transparent" points="-36,36 -36,-133 366,-133 366,36 -36,36"/>
<!-- Greeter -->
<g id="node1" class="node">
<title>Greeter</title>
<polygon fill="white" stroke="transparent" points="221,0 221,-97 330,-97 330,0 221,0"/>
<polygon fill="#3949ab" stroke="transparent" points="222.5,-76.5 222.5,-95.5 329.5,-95.5 329.5,-76.5 222.5,-76.5"/>
<text text-anchor="start" x="262" y="-84.1" font-family="Roboto" font-size="8.00" fill="white">Greeter</text>
<text text-anchor="start" x="227.5" y="-65.1" font-family="Roboto" font-size="8.00">O</text>
<text text-anchor="start" x="243.5" y="-65.1" font-family="Roboto" font-size="8.00">PersonFirstName</text>
<text text-anchor="start" x="227.5" y="-46.1" font-family="Roboto" font-size="8.00">O</text>
<text text-anchor="start" x="244" y="-46.1" font-family="Roboto" font-size="8.00">PersonLastName</text>
<text text-anchor="start" x="261" y="-27.1" font-family="Roboto" font-size="8.00">DoGreet</text>
<text text-anchor="start" x="318.5" y="-27.1" font-family="Roboto" font-size="8.00">O</text>
<text text-anchor="start" x="243.5" y="-8.1" font-family="Roboto" font-size="8.00">DoGreetFullName</text>
<text text-anchor="start" x="318.5" y="-8.1" font-family="Roboto" font-size="8.00">O</text>
<polygon fill="none" stroke="black" points="221,0 221,-97 330,-97 330,0 221,0"/>
</g>
<!-- TestPerson -->
<g id="node2" class="node">
<title>TestPerson</title>
<polygon fill="white" stroke="transparent" points="0,-38 0,-97 77,-97 77,-38 0,-38"/>
<polygon fill="#3949ab" stroke="transparent" points="1.5,-76.5 1.5,-95.5 76.5,-95.5 76.5,-76.5 1.5,-76.5"/>
<text text-anchor="start" x="17.5" y="-84.1" font-family="Roboto" font-size="8.00" fill="white">TestPerson</text>
<text text-anchor="start" x="16.5" y="-65.1" font-family="Roboto" font-size="8.00">FirstName</text>
<text text-anchor="start" x="65.5" y="-65.1" font-family="Roboto" font-size="8.00">O</text>
<text text-anchor="start" x="17" y="-46.1" font-family="Roboto" font-size="8.00">LastName</text>
<text text-anchor="start" x="65.5" y="-46.1" font-family="Roboto" font-size="8.00">O</text>
<polygon fill="none" stroke="black" points="0,-38 0,-97 77,-97 77,-38 0,-38"/>
</g>
<!-- TestPerson&#45;&gt;Greeter -->
<g id="edge1" class="edge">
<title>TestPerson:FirstName&#45;&gt;Greeter:PersonFirstName</title>
<path fill="none" stroke="black" d="M77,-66.5C137.71,-66.5 155.38,-67.39 211.38,-67.49"/>
<polygon fill="black" stroke="black" points="211.5,-70.99 221.5,-67.5 211.5,-63.99 211.5,-70.99"/>
</g>
<!-- TestPerson&#45;&gt;Greeter -->
<g id="edge2" class="edge">
<title>TestPerson:LastName&#45;&gt;Greeter:PersonLastName</title>
<path fill="none" stroke="black" d="M77,-47.5C137.71,-47.5 155.38,-47.5 211.38,-47.5"/>
<polygon fill="black" stroke="black" points="211.5,-51 221.5,-47.5 211.5,-44 211.5,-51"/>
</g>
</g>
</svg>
