<?xml version="1.0" encoding="UTF-8" standalone="no"?>
<!DOCTYPE svg PUBLIC "-//W3C//DTD SVG 1.1//EN"
 "http://www.w3.org/Graphics/SVG/1.1/DTD/svg11.dtd">
<!-- Generated by graphviz version 2.44.1 (0)
 -->
<!-- Pages: 1 -->
<svg width="181pt" height="169pt"
 viewBox="0.00 0.00 181.00 169.00" xmlns="http://www.w3.org/2000/svg" xmlns:xlink="http://www.w3.org/1999/xlink">
<g id="graph0" class="graph" transform="scale(1 1) rotate(0) translate(36 133)">
<polygon fill="white" stroke="transparent" points="-36,36 -36,-133 145,-133 145,36 -36,36"/>
<!-- Greeter -->
<g id="node1" class="node">
<title>Greeter</title>
<polygon fill="white" stroke="transparent" points="0,0 0,-97 109,-97 109,0 0,0"/>
<polygon fill="#3949ab" stroke="transparent" points="1.5,-76.5 1.5,-95.5 108.5,-95.5 108.5,-76.5 1.5,-76.5"/>
<text text-anchor="start" x="41" y="-84.1" font-family="Roboto" font-size="8.00" fill="white">Greeter</text>
<text text-anchor="start" x="6.5" y="-65.1" font-family="Roboto" font-size="8.00">O</text>
<text text-anchor="start" x="22.5" y="-65.1" font-family="Roboto" font-size="8.00">PersonFirstName</text>
<text text-anchor="start" x="6.5" y="-46.1" font-family="Roboto" font-size="8.00">O</text>
<text text-anchor="start" x="23" y="-46.1" font-family="Roboto" font-size="8.00">PersonLastName</text>
<text text-anchor="start" x="40" y="-27.1" font-family="Roboto" font-size="8.00">DoGreet</text>
<text text-anchor="start" x="97.5" y="-27.1" font-family="Roboto" font-size="8.00">O</text>
<text text-anchor="start" x="22.5" y="-8.1" font-family="Roboto" font-size="8.00">DoGreetFullName</text>
<text text-anchor="start" x="97.5" y="-8.1" font-family="Roboto" font-size="8.00">O</text>
<polygon fill="none" stroke="black" points="0,0 0,-97 109,-97 109,0 0,0"/>
</g>
</g>
</svg>
