<?xml version="1.0" encoding="UTF-8" standalone="no"?>
<!DOCTYPE svg PUBLIC "-//W3C//DTD SVG 1.1//EN"
 "http://www.w3.org/Graphics/SVG/1.1/DTD/svg11.dtd">
<!-- Generated by graphviz version 2.44.1 (0)
 -->
<!-- Pages: 1 -->
<svg width="372pt" height="150pt"
 viewBox="0.00 0.00 372.00 150.00" xmlns="http://www.w3.org/2000/svg" xmlns:xlink="http://www.w3.org/1999/xlink">
<g id="graph0" class="graph" transform="scale(1 1) rotate(0) translate(36 114)">
<polygon fill="white" stroke="transparent" points="-36,36 -36,-114 336,-114 336,36 -36,36"/>
<!-- MyTestVar -->
<g id="node1" class="node">
<title>MyTestVar</title>
<polygon fill="white" stroke="transparent" points="0,-19 0,-78 81,-78 81,-19 0,-19"/>
<polygon fill="#3949ab" stroke="transparent" points="1.5,-57.5 1.5,-76.5 80.5,-76.5 80.5,-57.5 1.5,-57.5"/>
<text text-anchor="start" x="21" y="-65.1" font-family="Roboto" font-size="8.00" fill="white">MyTestVar</text>
<text text-anchor="start" x="6.5" y="-46.1" font-family="Roboto" font-size="8.00">O</text>
<text text-anchor="start" x="22.5" y="-46.1" font-family="Roboto" font-size="8.00">TestValue</text>
<text text-anchor="start" x="25.5" y="-27.1" font-family="Roboto" font-size="8.00">Variable</text>
<text text-anchor="start" x="69.5" y="-27.1" font-family="Roboto" font-size="8.00">O</text>
<polygon fill="none" stroke="black" points="0,-19 0,-78 81,-78 81,-19 0,-19"/>
</g>
<!-- PascalApp -->
<g id="node2" class="node">
<title>PascalApp</title>
<polygon fill="white" stroke="transparent" points="225,0 225,-59 300,-59 300,0 225,0"/>
<polygon fill="#3949ab" stroke="transparent" points="226.5,-38.5 226.5,-57.5 299.5,-57.5 299.5,-38.5 226.5,-38.5"/>
<text text-anchor="start" x="243" y="-46.1" font-family="Roboto" font-size="8.00" fill="white">PascalApp</text>
<text text-anchor="start" x="231.5" y="-27.1" font-family="Roboto" font-size="8.00">O</text>
<text text-anchor="start" x="248.5" y="-27.1" font-family="Roboto" font-size="8.00">TestVar</text>
<text text-anchor="start" x="247.5" y="-8.1" font-family="Roboto" font-size="8.00">Program</text>
<text text-anchor="start" x="288.5" y="-8.1" font-family="Roboto" font-size="8.00">O</text>
<polygon fill="none" stroke="black" points="225,0 225,-59 300,-59 300,0 225,0"/>
</g>
<!-- MyTestVar&#45;&gt;PascalApp -->
<g id="edge1" class="edge">
<title>MyTestVar:Variable&#45;&gt;PascalApp:TestVar</title>
<path fill="none" stroke="black" d="M81,-28.5C141.71,-28.5 159.38,-28.5 215.38,-28.5"/>
<polygon fill="black" stroke="black" points="215.5,-32 225.5,-28.5 215.5,-25 215.5,-32"/>
</g>
</g>
</svg>
